<svg width="24" height="24" viewBox="0 0 24 24" fill="none" xmlns="http://www.w3.org/2000/svg">
    <path d="M20.8967 2H3.10333C2.49417 2 2 2.49417 2 3.10333V20.8967C2 21.5067 2.49417 22 3.10333 22H12.6817V14.255H10.0742V11.2375H12.6817V9.00833C12.6817 6.42583 14.26 5.02083 16.5642 5.02083C17.6683 5.02083 18.6175 5.10167 18.8942 5.13833V7.83833H17.2933C16.0433 7.83833 15.8 8.43917 15.8 9.31417V11.24H18.7867L18.3992 14.265H15.8V22H20.8958C21.5067 22 22 21.5067 22 20.8967V3.10333C22 2.49417 21.5067 2 20.8967 2Z" fill="#000"></path>
</svg>