<svg width="24" height="24" viewBox="0 0 24 24" fill="none" xmlns="http://www.w3.org/2000/svg">
    <path d="M16.95 7.05H16.959M7.5 3H16.5C18.9853 3 21 5.01472 21 7.5V16.5C21 18.9853 18.9853 21 16.5 21H7.5C5.01472 21 3 18.9853 3 16.5V7.5C3 5.01472 5.01472 3 7.5 3ZM15.5997 11.433C15.7108 12.182 15.5829 12.947 15.2341 13.6191C14.8854 14.2912 14.3336 14.8363 13.6572 15.1767C12.9808 15.5171 12.2143 15.6356 11.4667 15.5153C10.7191 15.395 10.0285 15.0421 9.49309 14.5066C8.95766 13.9712 8.6047 13.2806 8.4844 12.533C8.3641 11.7854 8.4826 11.0189 8.82303 10.3425C9.16347 9.66616 9.7085 9.11436 10.3806 8.76561C11.0527 8.41686 11.8177 8.28893 12.5667 8.4C13.3308 8.51329 14.0381 8.86931 14.5843 9.41547C15.1304 9.96163 15.4864 10.669 15.5997 11.433Z" stroke="#000" stroke-width="2" stroke-linecap="round" stroke-linejoin="round"></path>
</svg>