<svg width="40" height="40" viewBox="0 0 40 40" fill="none" xmlns="http://www.w3.org/2000/svg">
    <rect width="40" height="40" rx="8" fill="#007A7A"></rect>
    <path fill-rule="evenodd" clip-rule="evenodd" d="M32.3825 11.8481L19.7048 27.8265C16.3379 25.1385 11.6606 24.306 5.79108 25.1633C11.5714 26.3637 16.6254 29.0044 20.6178 33.75L36.25 13.207C35.6404 12.3922 34.3512 11.9394 32.3825 11.8481ZM13.5951 17.7082C15.4071 14.5893 19.1232 10.1457 22.6579 5.625C15.4114 7.40352 9.13435 13.2392 3.75 21.2506C6.93267 19.4433 9.98272 18.2108 13.5951 17.7082ZM23.5188 8.42427L14.2255 20.5436C10.2306 20.4504 7.13958 21.5424 4.60945 23.3697C10.1419 22.1211 15.3704 21.7956 19.7584 24.0221L31.8452 8.09834C29.1848 7.79874 26.3928 7.96659 23.5188 8.42427Z" fill="white"></path>
</svg>